<svg xmlns="http://www.w3.org/2000/svg" viewBox="0 0 471.13 447.13"><defs><style>.cls-1{fill:#0d75d6;}</style></defs><title>Asset 2</title><g id="Layer_2" data-name="Layer 2"><g id="graphics"><circle class="cls-1" cx="203.99" cy="265.64" r="20.06"/><path class="cls-1" d="M130.19,0A130.19,130.19,0,0,0,0,130.2V447.13H39.55v-32H40V142.29A102.29,102.29,0,0,1,142.29,40H431.13V415.11c11,0,21-8.93,28.28-20.61s11.72-26.14,11.72-37.18V0Z"/><path class="cls-1" d="M366.07,119.16H155.13a2.21,2.21,0,0,0-2.2,2.2V191h40V159.16H328.27v219H192.93V346.32h-40v69.61a2.21,2.21,0,0,0,2.2,2.2H366.06a2.21,2.21,0,0,0,2.21-2.21V121.36A2.21,2.21,0,0,0,366.07,119.16Z"/></g></g></svg>